<svg xmlns="http://www.w3.org/2000/svg" width="16" height="16"><path fill-rule="evenodd" d="M8.006 1.117A7.065 7.065 0 0 0 5.79 14.87c.348.07.476-.152.476-.339 0-.164-.011-.724-.011-1.309-1.949.421-2.355-.841-2.355-.841a1.8 1.8 0 0 0-.777-1.028c-.638-.432.046-.432.046-.432a1.469 1.469 0 0 1 1.079.724 1.484 1.484 0 0 0 2.041.584 1.5 1.5 0 0 1 .441-.946c-1.554-.166-3.19-.771-3.19-3.482a2.763 2.763 0 0 1 .719-1.893 2.567 2.567 0 0 1 .07-1.87s.592-.187 1.925.724a6.679 6.679 0 0 1 3.5 0c1.334-.911 1.925-.724 1.925-.724a2.567 2.567 0 0 1 .07 1.87 2.71 2.71 0 0 1 .719 1.893c0 2.711-1.635 3.307-3.2 3.482a1.676 1.676 0 0 1 .476 1.309c0 .946-.011 1.706-.011 1.94 0 .187.128.409.476.339A7.065 7.065 0 0 0 8.006 1.117Z"/></svg>