<svg xmlns="http://www.w3.org/2000/svg" width="14" height="13.999" viewBox="0 0 14 13.999">
  <g id="info" transform="translate(-1 -1)">
    <path id="Path_2" data-name="Path 2" d="M-25-50a7.008,7.008,0,0,1-7-7,7.008,7.008,0,0,1,7-7,7.008,7.008,0,0,1,7,7A7.008,7.008,0,0,1-25-50Zm0-13a6.007,6.007,0,0,0-6,6,6.006,6.006,0,0,0,6,6,6.007,6.007,0,0,0,6-6A6.007,6.007,0,0,0-25-63Z" transform="translate(33 65)"/>
    <rect id="Rectangle_1" data-name="Rectangle 1" width="1" height="4" transform="translate(7.5 7)"/>
    <rect id="Rectangle_2" data-name="Rectangle 2" width="1" height="1" transform="translate(7.5 5)"/>
  </g>
</svg>
